Patient4_TMGait_0pt3_02_right_18_GRF.mot
version=1
nRows=39
nColumns=19
inDegrees=no
endheader
time	F1x	F1y	F1z	M1x	M1y	M1z	F2x	F2y	F2z	M2x	M2y	M2z	EC1x	EC1y	EC1z	EC2x	EC2y	EC2z
33.96	-17.5783	814.8818	47.0989	-303.3366	-49.9985	789.695	-5.7545	55.6418	-8.4178	21.3423	8.1611	42.7617	-0.0592	0.0182	-0.0073	-0.0462	0.0165	0.9585
33.9805	-18.5655	835.2789	50.1867	-310.352	-52.5238	806.2472	-4.5489	45.7026	-6.9731	17.3826	6.7657	35.359	-0.0592	0.0182	-0.0073	-0.0462	0.0165	0.9585
34.001	-18.931	853.5415	53.4407	-316.459	-54.9128	819.98	-3.5731	35.0879	-5.3814	13.2304	5.3132	27.3914	-0.0592	0.0182	-0.0073	-0.0462	0.0165	0.9585
34.0215	-18.3957	865.945	56.5205	-320.3215	-56.7952	827.4612	-2.7427	24.9553	-3.8081	9.3264	3.8924	19.7388	-0.0592	0.0182	-0.0073	-0.0462	0.0165	0.9585
34.042	-16.794	869.5279	59.0827	-320.8919	-57.8238	826.0522	-1.9982	16.2971	-2.4211	6.0301	2.6138	13.1686	-0.0592	0.0182	-0.0073	-0.0462	0.0165	0.9585
34.0625	-14.0793	862.7929	60.8547	-317.6575	-57.7483	814.5344	-1.393	9.6323	-1.3325	3.5183	1.5901	8.0954	-0.0592	0.0182	-0.0073	-0.0462	0.0165	0.9585
34.083	-10.3428	845.9983	61.6904	-310.7404	-56.4818	793.3612	-0.95112	4.9624	-0.5623	1.7762	0.85129	4.5322	-0.0592	0.0182	-0.0073	-0.0462	0.0165	0.9585
34.1035	-5.8085	821.0596	61.5986	-300.8576	-54.1295	764.543	-0.66112	1.9815	-0.07525	0.67783	0.37284	2.2441	-0.0592	0.0182	-0.0073	-0.0462	0.0165	0.9585
34.124	-0.80515	791.1665	60.7153	-289.1845	-50.9542	731.2446	-0.49376	0.24513	0.18933	0.048449	0.10379	0.88599	-0.0592	0.0182	-0.0073	-0.0462	0.0165	0.9585
34.1445	4.3055	760.302	59.2387	-277.1911	-47.2863	697.276	-0.41259	-0.7156	0.29991	-0.29313	-0.017638	0.085875	-0.0592	0.0182	-0.0073	-0.0462	0.0165	0.9585
34.165	9.2316	732.6286	57.361	-266.43	-43.4172	666.4826	-0.38305	-1.3248	0.32082	-0.50909	-0.053423	-0.50097	-0.0592	0.0182	-0.0073	-0.0462	0.0165	0.9585
34.1855	13.808	711.7166	55.2374	-258.2533	-39.5433	642.0508	-0.37288	-1.927	0.30498	-0.7289	-0.056203	-1.1579	-0.0592	0.0182	-0.0073	-0.0462	0.0165	0.9585
34.206	17.9992	699.8458	53.007	-253.5377	-35.7846	625.9083	-0.35449	-2.757	0.29079	-1.0403	-0.06922	-2.0851	-0.0592	0.0182	-0.0073	-0.0462	0.0165	0.9585
34.2265	21.8653	697.637	50.8282	-252.5314	-32.2356	618.4565	-0.3088	-3.9128	0.30481	-1.4807	-0.12324	-3.3627	-0.0592	0.0182	-0.0073	-0.0462	0.0165	0.9585
34.247	25.4929	704.043	48.8876	-254.8393	-29.0047	618.6489	-0.22158	-5.3271	0.36261	-2.0246	-0.23403	-4.9126	-0.0592	0.0182	-0.0073	-0.0462	0.0165	0.9585
34.2675	28.9404	716.6557	47.3791	-259.5354	-26.2208	624.3151	-0.082586	-6.729	0.46632	-2.5671	-0.40459	-6.4511	-0.0592	0.0182	-0.0073	-0.0462	0.0165	0.9585
34.288	32.2263	732.264	46.4603	-265.3757	-24.0003	632.6708	0.10926	-7.5971	0.60302	-2.9057	-0.62307	-7.4425	-0.0592	0.0182	-0.0073	-0.0462	0.0165	0.9585
34.3085	35.3206	747.469	46.2203	-271.0375	-22.4227	640.8529	0.34029	-7.1041	0.74441	-2.7217	-0.85587	-7.0481	-0.0592	0.0182	-0.0073	-0.0462	0.0165	0.9585
34.329	38.1406	759.1952	46.6732	-275.3192	-21.5268	646.3457	0.57815	-4.0842	0.84316	-1.5682	-1.0403	-4.0945	-0.0592	0.0182	-0.0073	-0.0462	0.0165	0.9585
34.3495	40.5658	765.0547	47.75	-277.2892	-21.3048	647.2623	0.7601	2.9405	0.82745	1.1202	-1.0755	2.9096	-0.0592	0.0182	-0.0073	-0.0462	0.0165	0.9585
34.37	42.4658	763.5199	49.302	-276.3636	-21.6937	642.4455	0.78477	15.6322	0.59813	5.9795	-0.81702	15.6532	-0.0592	0.0182	-0.0073	-0.0462	0.0165	0.9585
34.3905	43.7298	753.8792	51.1047	-272.2963	-22.5601	631.3917	0.50227	35.5677	0.028665	13.6132	-0.072542	35.7505	-0.0592	0.0182	-0.0073	-0.0462	0.0165	0.9585
34.411	44.2708	736.0209	52.8634	-265.097	-23.7046	614.0651	-0.33674	63.8119	-1.0258	24.428	1.4044	64.3021	-0.0592	0.0182	-0.0073	-0.0462	0.0165	0.9585
34.4315	44.017	710.16	54.2392	-254.9204	-24.8898	590.6718	-2.2219	100.3326	-2.6806	38.4088	3.9173	101.3049	-0.0592	0.0182	-0.0073	-0.0462	0.0165	0.9585
34.452	42.9637	676.8016	54.9056	-242.0369	-25.8642	561.614	-5.6973	143.4255	-4.9887	54.8945	7.7159	145.0743	-0.0592	0.0182	-0.0073	-0.0462	0.0165	0.9585
34.4725	41.2263	636.9836	54.6369	-226.904	-26.4048	527.6692	-10.6462	189.86	-8.014	72.6167	12.801	192.359	-0.0592	0.0182	-0.0073	-0.0462	0.0165	0.9585
34.493	39.0365	592.438	53.3843	-210.2091	-26.3775	490.1363	-16.4544	236.2568	-11.6646	90.2515	18.8247	239.705	-0.0592	0.0182	-0.0073	-0.0462	0.0165	0.9585
34.5135	36.6702	545.3639	51.2523	-192.7824	-25.7477	450.6898	-22.4947	280.8529	-15.5728	107.1221	25.1744	285.2901	-0.0592	0.0182	-0.0073	-0.0462	0.0165	0.9585
34.534	34.3291	497.8503	48.3934	-175.3912	-24.546	410.958	-28.2453	323.11	-19.2672	123.0469	31.1923	328.5359	-0.0592	0.0182	-0.0073	-0.0462	0.0165	0.9585
34.5545	32.0921	451.4643	44.952	-158.5931	-22.8425	372.1985	-33.2882	362.8268	-22.3982	137.9756	36.3856	369.2	-0.0592	0.0182	-0.0073	-0.0462	0.0165	0.9585
34.575	29.9367	407.1161	41.0896	-142.694	-20.7574	335.168	-37.3516	399.8254	-24.8318	151.8523	40.5238	407.0698	-0.0592	0.0182	-0.0073	-0.0462	0.0165	0.9585
34.5955	27.7889	365.07	36.9826	-127.7569	-18.447	300.108	-40.3206	433.8844	-26.6416	164.5887	43.6356	441.8849	-0.0592	0.0182	-0.0073	-0.0462	0.0165	0.9585
34.616	25.5687	325.1537	32.7875	-113.6855	-16.0618	266.9045	-42.2075	464.8675	-28.011	176.1237	45.9085	473.4496	-0.0592	0.0182	-0.0073	-0.0462	0.0165	0.9585
34.6365	23.2127	287.0709	28.6298	-100.3391	-13.7277	235.3344	-43.106	493.0216	-29.1095	186.5455	47.5409	501.9275	-0.0592	0.0182	-0.0073	-0.0462	0.0165	0.9585
34.657	20.6719	250.6037	24.6039	-87.6073	-11.5441	205.2284	-43.1457	518.9803	-30.0569	196.0954	48.684	527.8571	-0.0592	0.0182	-0.0073	-0.0462	0.0165	0.9585
34.6775	17.923	215.6848	20.7759	-75.439	-9.5813	176.5258	-42.4704	543.5341	-30.9176	205.0763	49.4345	551.9328	-0.0592	0.0182	-0.0073	-0.0462	0.0165	0.9585
34.698	14.9784	182.413	17.1958	-63.8487	-7.8846	149.2836	-41.2231	567.3573	-31.7318	213.7401	49.8687	574.7454	-0.0592	0.0182	-0.0073	-0.0462	0.0165	0.9585
34.7185	11.8864	151.049	13.9121	-52.9156	-6.4796	123.6772	-39.5238	590.802	-32.5779	222.2008	50.0926	596.5842	-0.0592	0.0182	-0.0073	-0.0462	0.0165	0.9585
34.739	8.7456	121.9669	10.9836	-42.7655	-5.3753	99.9659	-37.4423	613.839	-33.6015	230.409	50.2587	617.3705	-0.0592	0.0182	-0.0073	-0.0462	0.0165	0.9585
